<?xml version="1.0" standalone="no"?><!DOCTYPE svg PUBLIC "-//W3C//DTD SVG 1.1//EN" "http://www.w3.org/Graphics/SVG/1.1/DTD/svg11.dtd"><svg width="128" height="128" viewBox="0 0 128 128" version="1.1" xmlns="http://www.w3.org/2000/svg" xmlns:xlink="http://www.w3.org/1999/xlink"><defs><style type="text/css"><![CDATA[
@font-face {
  font-family: "ifont";
  src: url("//at.alicdn.com/t/font_1442373896_4754455.eot?#iefix") format("embedded-opentype"), url("//at.alicdn.com/t/font_1442373896_4754455.woff") format("woff"), url("//at.alicdn.com/t/font_1442373896_4754455.ttf") format("truetype"), url("//at.alicdn.com/t/font_1442373896_4754455.svg#ifont") format("svg");
}

]]></style></defs><g class="transform-group"><g transform="scale(0.125, 0.125)"><path d="M905.758118 784.564706c-14.757647 34.093176-32.225882 65.475765-52.464941 94.328471-27.587765 39.333647-50.176 66.56-67.584 81.679059-26.985412 24.816941-55.898353 37.526588-86.859294 38.249412-22.226824 0-49.031529-6.324706-80.233412-19.154824-31.304282-12.769882-60.072659-19.094588-86.377412-19.094588-27.587765 0-57.175341 6.324706-88.822965 19.094588-31.695812 12.830118-57.229553 19.516235-76.751812 20.178824-29.689976 1.264941-59.283576-11.806118-88.822965-39.273412-18.853647-16.444235-42.435765-44.634353-70.686118-84.570353-30.3104-42.646588-55.229741-92.099765-74.752-148.48-20.907671-60.897882-31.388612-119.868235-31.388612-176.959247 0-65.397459 14.1312-121.801788 42.435765-169.068424 22.244894-37.966306 51.838494-67.915294 88.877176-89.901176s77.059012-33.189647 120.157365-33.906447c23.582118 0 54.506918 7.294494 92.937035 21.630494 38.321694 14.384188 62.927812 21.678682 73.715953 21.678682 8.065506 0 35.400282-8.529318 81.739294-25.533741 43.821176-15.7696 80.805647-22.299106 111.104-19.727059 82.100706 6.625882 143.781647 38.990306 184.801882 97.298071-73.426824 44.489788-109.748706 106.8032-109.025882 186.741459 0.662588 62.265224 23.250824 114.079624 67.644235 155.220329 20.118588 19.094588 42.586353 33.852235 67.584 44.333176-5.421176 15.721412-11.143529 30.780235-17.227294 45.236706zm-188.295529-740.954353c0 48.803238-17.829647 94.370635-53.368471 136.547388-42.887529 50.139859-94.762165 79.113035-151.015906 74.541176-0.7168-5.854871-1.132424-12.016941-1.132424-18.492235 0-46.851012 20.395671-96.990871 56.615153-137.987012 18.082635-20.757082 41.080471-38.016301 68.969412-51.784282 27.828706-13.562579 54.151529-21.063078 78.908235-22.347294 0.722824 6.524085 1.024 13.048772 1.024 19.521656z" fill="#eb4f38"></path></g></g></svg>